<svg xmlns="http://www.w3.org/2000/svg" xmlns:xlink="http://www.w3.org/1999/xlink" width="500" zoomAndPan="magnify" viewBox="0 0 375 374.999991" height="500" preserveAspectRatio="xMidYMid meet" version="1.0"><defs><clipPath id="8ebabb5bc2"><path d="M 50.035156 0 L 325 0 L 325 375 L 50.035156 375 Z M 50.035156 0 " clip-rule="nonzero"/></clipPath></defs><g clip-path="url(#8ebabb5bc2)"><path fill="#e6662e" d="M 324.921875 85.972656 C 319.8125 77.636719 299.144531 64.398438 282.886719 58.949219 C 266.648438 53.5 250.066406 51.925781 232.984375 54.359375 C 250.164062 43.292969 268.8125 36.214844 290.285156 31.800781 C 273.3125 25.796875 257.472656 23.710938 241.121094 26.613281 C 224.542969 29.558594 210.445312 37.324219 197.886719 50.40625 C 199.339844 29.734375 191.234375 14.171875 177.527344 0.00390625 C 177.453125 0.175781 177.386719 0.351562 177.320312 0.527344 C 177.210938 0.371094 177.109375 0.210938 177 0.0546875 C 166.449219 16.707031 161.664062 33.585938 167.273438 53.539062 C 152.324219 43.269531 136.949219 38.519531 120.121094 38.992188 C 103.519531 39.460938 88.425781 44.710938 73.023438 54.03125 C 94.949219 54.003906 114.640625 57.15625 133.703125 64.519531 C 116.480469 65.59375 100.5625 70.492188 85.765625 79.117188 C 70.949219 87.746094 53.386719 104.890625 50.074219 114.089844 C 71.25 102.890625 96.851562 96.894531 114.660156 94.417969 C 118.605469 93.859375 122.164062 93.480469 125.210938 93.253906 C 115.457031 98.839844 106.910156 105.113281 99.765625 112.226562 C 84.613281 127.285156 75.753906 146.113281 75.003906 170.148438 C 92.5 152.367188 113.527344 140.351562 135.449219 129.257812 C 124.398438 151.980469 121.972656 175.503906 136.59375 200.761719 C 140.421875 176.113281 149.980469 153.867188 163.761719 132.410156 C 163.660156 138.90625 164.75 150.671875 165.378906 150.996094 C 171.214844 143.421875 177.050781 135.855469 183.023438 128.113281 C 183.847656 127.042969 184.691406 125.996094 185.554688 124.960938 C 191.394531 207.785156 185.804688 290.761719 168.925781 371.710938 L 168.242188 374.984375 L 206.769531 374.984375 L 206.957031 372.464844 C 213.226562 288.347656 207.972656 204.007812 191.351562 121.703125 C 193.484375 123.261719 195.558594 124.898438 197.5625 126.625 C 204.984375 132.996094 212.230469 139.226562 219.480469 145.460938 C 220.03125 145.019531 218.714844 133.277344 217.300781 126.9375 C 217.304688 126.949219 217.3125 126.949219 217.316406 126.953125 C 235.152344 145.167969 249.007812 165.015625 257.742188 188.363281 C 266.949219 160.667969 259.808594 138.132812 244.382812 118.117188 C 268.101562 124.539062 291.125 132.046875 311.859375 145.914062 C 306.257812 122.53125 293.777344 105.890625 275.886719 94.214844 C 267.449219 88.6875 257.808594 84.28125 247.121094 80.785156 C 250.148438 80.386719 253.710938 80.035156 257.6875 79.78125 C 275.628906 78.605469 301.914062 79.289062 324.921875 85.972656 " fill-opacity="1" fill-rule="nonzero"/></g></svg>